<svg width="90" height="90" viewBox="0 0 90 90" fill="none" xmlns="http://www.w3.org/2000/svg">
<path d="M37.4812 3.67958C36.4812 3.68305 35.3752 4.18151 34.3658 5.29958L16.5489 27.6923H3.11538C1.39881 27.6923 0 29.2465 0 31.1538V58.8461C0 60.7534 1.39881 62.3077 3.11538 62.3077H16.552L34.2692 84.593C37.3846 88.0546 40.5 86.2823 40.5 81.5642V7.89228C40.5 5.1542 39.151 3.66228 37.4812 3.67266V3.67958ZM60.0677 10.6027C59.4052 10.7311 58.7978 11.0943 58.3364 11.6381C57.875 12.1818 57.5843 12.8769 57.5079 13.6194C57.4315 14.3618 57.5734 15.1118 57.9123 15.7573C58.2513 16.4028 58.7692 16.909 59.3886 17.2004C64.0233 19.7893 67.9173 23.7617 70.634 28.6719C73.3506 33.5821 74.7826 39.2361 74.7692 45C74.7692 57.1984 68.5385 67.673 59.3855 72.7996C58.9689 72.9606 58.5879 73.2181 58.2676 73.5549C57.9473 73.8918 57.6951 74.3004 57.5275 74.7536C57.3599 75.2069 57.2809 75.6945 57.2956 76.1843C57.3103 76.674 57.4184 77.1547 57.6128 77.5946C57.8072 78.0344 58.0834 78.4234 58.4232 78.7358C58.7629 79.0482 59.1585 79.2769 59.5838 79.4067C60.009 79.5365 60.4543 79.5646 60.89 79.489C61.3257 79.4133 61.7421 79.2358 62.1114 78.968C73.305 72.6923 81 59.843 81 45C81 30.1569 73.3019 17.3077 62.1114 11.0319C61.5783 10.7013 60.9694 10.552 60.3606 10.6027C60.263 10.5976 60.1653 10.5976 60.0677 10.6027ZM52.6687 24.0127C51.9979 24.0674 51.361 24.3619 50.8533 24.8521C50.3456 25.3423 49.9944 26.0019 49.852 26.7323C49.7097 27.4628 49.7839 28.2247 50.0636 28.9044C50.3433 29.5841 50.8135 30.1449 51.4038 30.503C56.2109 33.8227 59.1923 39.0807 59.1923 45C59.1923 50.9607 56.1642 56.288 51.3073 59.6042C50.9257 59.8254 50.5895 60.132 50.3199 60.5047C50.0503 60.8774 49.8531 61.3082 49.7408 61.7698C49.6285 62.2314 49.6035 62.7138 49.6673 63.1867C49.7311 63.6596 49.8825 64.1127 50.1117 64.5173C50.341 64.922 50.6433 65.2695 50.9994 65.5379C51.3556 65.8064 51.7579 65.9899 52.1811 66.0769C52.6043 66.164 53.0391 66.1527 53.4581 66.0437C53.8772 65.9347 54.2713 65.7305 54.6158 65.4438C61.0647 61.0477 65.4231 53.5707 65.4231 45C65.4231 36.4811 61.102 28.9627 54.7124 24.5561C54.1904 24.1856 53.5808 23.9964 52.9615 24.0127C52.864 24.0076 52.7663 24.0076 52.6687 24.0127Z" fill="white"/>
</svg>
