<svg width="80" height="80" viewBox="0 0 80 80" fill="none" xmlns="http://www.w3.org/2000/svg">
<path d="M5 58.75C5 61.0706 5.92187 63.2962 7.56282 64.9372C9.20376 66.5781 11.4294 67.5 13.75 67.5H66.25C68.5706 67.5 70.7962 66.5781 72.4372 64.9372C74.0781 63.2962 75 61.0706 75 58.75V34.6875H5V58.75ZM15.3125 46.875C15.3125 45.6318 15.8064 44.4395 16.6854 43.5604C17.5645 42.6814 18.7568 42.1875 20 42.1875H27.5C28.7432 42.1875 29.9355 42.6814 30.8146 43.5604C31.6936 44.4395 32.1875 45.6318 32.1875 46.875V50C32.1875 51.2432 31.6936 52.4355 30.8146 53.3146C29.9355 54.1936 28.7432 54.6875 27.5 54.6875H20C18.7568 54.6875 17.5645 54.1936 16.6854 53.3146C15.8064 52.4355 15.3125 51.2432 15.3125 50V46.875ZM66.25 12.5H13.75C11.4294 12.5 9.20376 13.4219 7.56282 15.0628C5.92187 16.7038 5 18.9294 5 21.25V25.3125H75V21.25C75 18.9294 74.0781 16.7038 72.4372 15.0628C70.7962 13.4219 68.5706 12.5 66.25 12.5Z" fill="white"/>
</svg>
