<svg width="132" height="103" viewBox="0 0 132 103" fill="none" xmlns="http://www.w3.org/2000/svg">
<path d="M107.425 45.543C107.425 45.543 109.161 54.0437 109.55 55.8261H101.918C102.672 53.7923 105.574 45.8857 105.574 45.8857C105.528 45.9543 106.328 43.8063 106.785 42.4809L107.425 45.543ZM131.624 10.9687V91.4059C131.624 97.4615 126.711 102.375 120.656 102.375H10.9687C4.91306 102.375 0 97.4615 0 91.4059V10.9687C0 4.91307 4.91306 0 10.9687 0H120.656C126.711 0 131.624 4.91307 131.624 10.9687ZM34.8485 68.3716L49.2906 32.9061H39.5787L30.5981 57.1287L29.6155 52.2156L26.4163 35.8997C25.8907 33.6374 24.2683 32.9975 22.2573 32.9061H7.47243L7.31247 33.6145C10.923 34.5286 14.1451 35.8539 16.9558 37.5221L25.1366 68.3716H34.8485ZM56.4203 68.4173L62.1788 32.9061H52.9925L47.2568 68.4173H56.4203ZM88.3895 56.8087C88.4352 52.764 85.9672 49.6791 80.6885 47.1426C77.4665 45.5201 75.5012 44.4233 75.5012 42.7551C75.5469 41.2469 77.1694 39.693 80.7799 39.693C83.7735 39.6244 85.9672 40.3328 87.6125 41.0412L88.4352 41.4297L89.692 33.7516C87.8867 33.0432 85.0074 32.2434 81.4655 32.2434C72.3934 32.2434 66.0179 37.0879 65.9722 43.9891C65.9036 49.0849 70.5425 51.9185 74.0159 53.6324C77.5579 55.3691 78.769 56.5117 78.769 58.0427C78.7233 60.4193 75.8897 61.5161 73.2618 61.5161C69.6056 61.5161 67.6403 60.9449 64.6468 59.6195L63.4357 59.0482L62.156 67.0233C64.304 68.006 68.2802 68.8743 72.3934 68.92C82.0368 68.9429 88.3209 64.1669 88.3895 56.8087ZM120.656 68.4173L113.252 32.9061H106.145C103.951 32.9061 102.283 33.546 101.346 35.8539L87.7039 68.4173H97.3472C97.3472 68.4173 98.924 64.0298 99.2668 63.0929H111.058C111.332 64.3497 112.155 68.4173 112.155 68.4173H120.656Z" fill="black" fill-opacity="0.694118"/>
</svg>
