<svg width="133" height="103" viewBox="0 0 133 103" fill="none" xmlns="http://www.w3.org/2000/svg">
<path d="M121.56 0.354736H11.919C5.84049 0.354736 0.927429 5.2678 0.927429 11.3234V91.7606C0.927429 97.8162 5.84049 102.729 11.919 102.729H121.56C127.639 102.729 132.552 97.8162 132.552 91.7606V11.3234C132.552 5.2678 127.639 0.354736 121.56 0.354736ZM13.2901 11.3234H120.189C120.943 11.3234 121.56 11.9404 121.56 12.6945V22.2921H11.919V12.6945C11.919 11.9404 12.536 11.3234 13.2901 11.3234ZM120.189 91.7606H13.2901C12.536 91.7606 11.919 91.1436 11.919 90.3895V51.542H121.56V90.3895C121.56 91.1436 120.943 91.7606 120.189 91.7606ZM44.8022 68.9091V78.0497C44.8022 79.5579 43.5683 80.7919 42.0601 80.7919H25.607C24.0988 80.7919 22.8648 79.5579 22.8648 78.0497V68.9091C22.8648 67.4009 24.0988 66.167 25.607 66.167H42.0601C43.5683 66.167 44.8022 67.4009 44.8022 68.9091ZM88.6771 68.9091V78.0497C88.6771 79.5579 87.4431 80.7919 85.9349 80.7919H54.8569C53.3487 80.7919 52.1147 79.5579 52.1147 78.0497V68.9091C52.1147 67.4009 53.3487 66.167 54.8569 66.167H85.9349C87.4431 66.167 88.6771 67.4009 88.6771 68.9091Z" fill="black"/>
</svg>