<svg width="27" height="28" viewBox="0 0 27 28" fill="none" xmlns="http://www.w3.org/2000/svg">
<g filter="url(#filter0_d_63_194)">
<path d="M13.7125 6.53847V4.46155M13.7125 6.53847C12.5986 6.53847 11.6993 6.53847 11.6993 7.92309C11.6993 10 15.7257 10 15.7257 12.0769C15.7257 13.4615 14.8265 13.4615 13.7125 13.4615M13.7125 6.53847C14.8265 6.53847 15.7257 7.06462 15.7257 7.92309M11.6993 12.0769C11.6993 13.1154 12.5986 13.4615 13.7125 13.4615M13.7125 13.4615V15.5385" stroke="#1E1E1E" stroke-linecap="round" stroke-linejoin="round"/>
<path d="M13.7124 19C18.5304 19 22.4361 14.9706 22.4361 10C22.4361 5.02944 18.5304 1 13.7124 1C8.8944 1 4.98865 5.02944 4.98865 10C4.98865 14.9706 8.8944 19 13.7124 19Z" stroke="#1E1E1E" stroke-linecap="round" stroke-linejoin="round"/>
</g>
<defs>
<filter id="filter0_d_63_194" x="0.488647" y="0.5" width="26.4475" height="27" filterUnits="userSpaceOnUse" color-interpolation-filters="sRGB">
<feFlood flood-opacity="0" result="BackgroundImageFix"/>
<feColorMatrix in="SourceAlpha" type="matrix" values="0 0 0 0 0 0 0 0 0 0 0 0 0 0 0 0 0 0 127 0" result="hardAlpha"/>
<feOffset dy="4"/>
<feGaussianBlur stdDeviation="2"/>
<feComposite in2="hardAlpha" operator="out"/>
<feColorMatrix type="matrix" values="0 0 0 0 0 0 0 0 0 0 0 0 0 0 0 0 0 0 0.25 0"/>
<feBlend mode="normal" in2="BackgroundImageFix" result="effect1_dropShadow_63_194"/>
<feBlend mode="normal" in="SourceGraphic" in2="effect1_dropShadow_63_194" result="shape"/>
</filter>
</defs>
</svg>

