<svg width="35" height="28" viewBox="0 0 35 28" fill="none" xmlns="http://www.w3.org/2000/svg">
<path d="M33.3902 20.417C33.5324 19.6458 33.5324 18.8582 33.3902 18.0871L34.8013 17.2721C34.9654 17.1792 35.0365 16.9877 34.9818 16.8072C34.6154 15.6259 33.9864 14.5539 33.166 13.6678C33.0402 13.5311 32.8378 13.4983 32.6738 13.5913L31.2627 14.4062C30.6665 13.8976 29.9829 13.5038 29.2445 13.2412V11.6114C29.2445 11.4254 29.1132 11.2613 28.9327 11.2231C27.7131 10.9496 26.4715 10.9605 25.312 11.2231C25.1316 11.2613 25.0003 11.4254 25.0003 11.6114V13.2412C24.2619 13.5038 23.5783 13.8976 22.9821 14.4062L21.571 13.5913C21.4124 13.4983 21.2046 13.5311 21.0788 13.6678C20.2584 14.5539 19.6294 15.6259 19.263 16.8072C19.2083 16.9877 19.2848 17.1792 19.4435 17.2721L20.8545 18.0871C20.7123 18.8582 20.7123 19.6458 20.8545 20.417L19.4435 21.2319C19.2794 21.3249 19.2083 21.5163 19.263 21.6968C19.6294 22.8782 20.2584 23.9447 21.0788 24.8362C21.2046 24.9729 21.4069 25.0058 21.571 24.9128L22.9821 24.0979C23.5783 24.6065 24.2619 25.0003 25.0003 25.2628V26.8927C25.0003 27.0786 25.1316 27.2427 25.312 27.281C26.5317 27.5545 27.7732 27.5435 28.9327 27.281C29.1132 27.2427 29.2445 27.0786 29.2445 26.8927V25.2628C29.9829 25.0003 30.6665 24.6065 31.2627 24.0979L32.6738 24.9128C32.8324 25.0058 33.0402 24.9729 33.166 24.8362C33.9864 23.9502 34.6154 22.8782 34.9818 21.6968C35.0365 21.5163 34.9599 21.3249 34.8013 21.2319L33.3902 20.417ZM27.1279 21.9047C25.6621 21.9047 24.4752 20.7123 24.4752 19.252C24.4752 17.7917 25.6676 16.5994 27.1279 16.5994C28.5882 16.5994 29.7805 17.7917 29.7805 19.252C29.7805 20.7123 28.5936 21.9047 27.1279 21.9047ZM12.2513 14.0015C16.1181 14.0015 19.252 10.8676 19.252 7.00074C19.252 3.13392 16.1181 0 12.2513 0C8.38448 0 5.25055 3.13392 5.25055 7.00074C5.25055 10.8676 8.38448 14.0015 12.2513 14.0015ZM23.2556 26.3895C23.1298 26.3239 23.004 26.2473 22.8837 26.1762L22.4516 26.4278C22.1234 26.6137 21.7515 26.7177 21.3796 26.7177C20.7834 26.7177 20.2092 26.4661 19.799 26.0285C18.7981 24.9456 18.0324 23.6275 17.6003 22.2219C17.2995 21.2538 17.7042 20.231 18.5793 19.7224L19.0114 19.4708C19.0059 19.3286 19.0059 19.1864 19.0114 19.0442L18.5793 18.7926C17.7042 18.2894 17.2995 17.2612 17.6003 16.2931C17.6495 16.1345 17.7206 15.9759 17.7753 15.8173C17.5675 15.8009 17.3651 15.7517 17.1518 15.7517H16.2384C15.0242 16.3095 13.6733 16.6268 12.2513 16.6268C10.8293 16.6268 9.48381 16.3095 8.26415 15.7517H7.35078C3.29253 15.7517 0 19.0442 0 23.1024V25.3777C0 26.827 1.17591 28.003 2.62528 28.003H21.8773C22.4297 28.003 22.9438 27.8279 23.365 27.5381C23.2993 27.3302 23.2556 27.1169 23.2556 26.8927V26.3895Z" fill="black" fill-opacity="0.6941"/>
</svg>
