<svg width="35" height="25" viewBox="0 0 35 25" fill="none" xmlns="http://www.w3.org/2000/svg">
<path d="M33.25 0H1.75C0.783672 0 0 0.783672 0 1.75V22.75C0 23.7163 0.783672 24.5 1.75 24.5H33.25C34.2163 24.5 35 23.7163 35 22.75V1.75C35 0.783672 34.2163 0 33.25 0ZM9.625 16.1809V17.0625C9.625 17.3042 9.42922 17.5 9.1875 17.5H8.3125C8.07078 17.5 7.875 17.3042 7.875 17.0625V16.1716C7.25758 16.1399 6.65711 15.9245 6.15945 15.5509C5.94617 15.3907 5.93523 15.0713 6.12828 14.887L6.77086 14.274C6.92234 14.1296 7.14766 14.123 7.32484 14.2341C7.53648 14.3664 7.77656 14.4375 8.02594 14.4375H9.5632C9.91867 14.4375 10.2085 14.1137 10.2085 13.7162C10.2085 13.3908 10.0111 13.1042 9.72891 13.02L7.26797 12.2817C6.25133 11.9766 5.54094 11.0009 5.54094 9.90883C5.54094 8.56789 6.58273 7.47851 7.87445 7.44406V6.5625C7.87445 6.32078 8.07023 6.125 8.31195 6.125H9.18695C9.42867 6.125 9.62445 6.32078 9.62445 6.5625V7.45336C10.2419 7.48508 10.8423 7.7 11.34 8.07406C11.5533 8.2343 11.5642 8.55367 11.3712 8.73797L10.7286 9.35102C10.5771 9.49539 10.3518 9.50195 10.1746 9.39094C9.96297 9.25805 9.72289 9.1875 9.47352 9.1875H7.93625C7.58078 9.1875 7.29094 9.51125 7.29094 9.90883C7.29094 10.2342 7.48836 10.5208 7.77055 10.605L10.2315 11.3433C11.2481 11.6484 11.9585 12.6241 11.9585 13.7162C11.9585 15.0577 10.9167 16.1465 9.625 16.1809ZM22.75 15.3125C22.75 15.5542 22.5542 15.75 22.3125 15.75H16.1875C15.9458 15.75 15.75 15.5542 15.75 15.3125V14.4375C15.75 14.1958 15.9458 14 16.1875 14H22.3125C22.5542 14 22.75 14.1958 22.75 14.4375V15.3125ZM31.5 15.3125C31.5 15.5542 31.3042 15.75 31.0625 15.75H26.6875C26.4458 15.75 26.25 15.5542 26.25 15.3125V14.4375C26.25 14.1958 26.4458 14 26.6875 14H31.0625C31.3042 14 31.5 14.1958 31.5 14.4375V15.3125ZM31.5 10.0625C31.5 10.3042 31.3042 10.5 31.0625 10.5H16.1875C15.9458 10.5 15.75 10.3042 15.75 10.0625V9.1875C15.75 8.94578 15.9458 8.75 16.1875 8.75H31.0625C31.3042 8.75 31.5 8.94578 31.5 9.1875V10.0625Z" fill="black" fill-opacity="0.6941"/>
</svg>