<svg width="21" height="21" viewBox="0 0 21 21" fill="none" xmlns="http://www.w3.org/2000/svg">
<g clip-path="url(#clip0_78_172)">
<path d="M20.3396 6.8332C20.4708 7.19004 20.3601 7.58789 20.0771 7.84219L18.3011 9.4582C18.3462 9.79863 18.3708 10.1473 18.3708 10.5C18.3708 10.8527 18.3462 11.2014 18.3011 11.5418L20.0771 13.1578C20.3601 13.4121 20.4708 13.81 20.3396 14.1668C20.1591 14.6549 19.9417 15.1225 19.6915 15.5736L19.4988 15.9059C19.2281 16.357 18.9245 16.7836 18.5923 17.1855C18.3503 17.4809 17.9484 17.5793 17.5874 17.4645L15.3029 16.7385C14.7533 17.1609 14.1462 17.5137 13.4982 17.7803L12.9855 20.1223C12.9035 20.4955 12.6163 20.7908 12.239 20.8523C11.673 20.9467 11.0906 20.9959 10.4958 20.9959C9.90111 20.9959 9.31869 20.9467 8.75267 20.8523C8.37533 20.7908 8.08822 20.4955 8.00619 20.1223L7.49349 17.7803C6.84544 17.5137 6.23841 17.1609 5.6888 16.7385L3.40834 17.4686C3.0474 17.5834 2.64545 17.4809 2.40345 17.1896C2.07123 16.7877 1.76771 16.3611 1.49701 15.91L1.30423 15.5777C1.05404 15.1266 0.836656 14.659 0.656187 14.1709C0.524937 13.8141 0.635679 13.4162 0.918687 13.1619L2.69466 11.5459C2.64955 11.2014 2.62494 10.8527 2.62494 10.5C2.62494 10.1473 2.64955 9.79863 2.69466 9.4582L0.918687 7.84219C0.635679 7.58789 0.524937 7.19004 0.656187 6.8332C0.836656 6.34512 1.05404 5.87754 1.30423 5.42637L1.49701 5.09414C1.76771 4.64297 2.07123 4.21641 2.40345 3.81445C2.64545 3.51914 3.0474 3.4207 3.40834 3.53555L5.69291 4.26152C6.24252 3.83906 6.84955 3.48633 7.49759 3.21973L8.01029 0.877734C8.09232 0.504492 8.37943 0.20918 8.75677 0.147656C9.32279 0.0492187 9.90521 0 10.4999 0C11.0947 0 11.6771 0.0492187 12.2431 0.143555C12.6204 0.205078 12.9076 0.500391 12.9896 0.873633L13.5023 3.21562C14.1503 3.48223 14.7574 3.83496 15.307 4.25742L17.5915 3.53145C17.9525 3.4166 18.3544 3.51914 18.5964 3.81035C18.9286 4.2123 19.2322 4.63887 19.5029 5.09004L19.6956 5.42227C19.9458 5.87344 20.1632 6.34101 20.3437 6.8291L20.3396 6.8332ZM10.4999 13.7812C11.3702 13.7812 12.2048 13.4355 12.8201 12.8202C13.4355 12.2048 13.7812 11.3702 13.7812 10.5C13.7812 9.62976 13.4355 8.79516 12.8201 8.1798C12.2048 7.56445 11.3702 7.21875 10.4999 7.21875C9.6297 7.21875 8.7951 7.56445 8.17974 8.1798C7.56439 8.79516 7.21869 9.62976 7.21869 10.5C7.21869 11.3702 7.56439 12.2048 8.17974 12.8202C8.7951 13.4355 9.6297 13.7812 10.4999 13.7812Z" fill="#5A2F8B"/>
</g>
<defs>
<clipPath id="clip0_78_172">
<rect width="21" height="21" fill="white"/>
</clipPath>
</defs>
</svg>
