<svg width="35" height="35" viewBox="0 0 35 35" fill="none" xmlns="http://www.w3.org/2000/svg">
<path d="M34.524 30.2598L27.708 23.4451C27.4003 23.1375 26.9834 22.9666 26.5459 22.9666H25.4316C27.3183 20.5535 28.4394 17.5191 28.4394 14.2173C28.4394 6.36354 22.0745 0 14.22 0C6.36559 0 0 6.36354 0 14.2173C0 22.0711 6.36491 28.4346 14.22 28.4346C17.5218 28.4346 20.5576 27.3135 22.9707 25.4268V26.5411C22.9707 26.9786 23.1416 27.3956 23.4492 27.7032L30.2653 34.5179C30.9079 35.1605 31.9469 35.1605 32.5827 34.5179L34.5172 32.5833C35.1598 31.9408 35.1598 30.9024 34.524 30.2598ZM14.22 24.0596C8.78277 24.0596 4.37635 19.6614 4.37635 14.2173C4.37635 8.78072 8.77525 4.37498 14.22 4.37498C19.6573 4.37498 24.0637 8.7732 24.0637 14.2173C24.0637 19.6539 19.6648 24.0596 14.22 24.0596ZM16.0733 13.6322L12.9964 12.7093C12.6437 12.6034 12.3969 12.2458 12.3969 11.8391C12.3969 11.3421 12.7592 10.9374 13.2035 10.9374H15.1251C15.4368 10.9374 15.7376 11.0256 16.0015 11.1917C16.223 11.3305 16.5046 11.3223 16.694 11.1418L17.4972 10.3755C17.7385 10.1452 17.7248 9.74595 17.4582 9.54566C16.8361 9.07876 16.0856 8.80943 15.3138 8.76978V7.65621C15.3138 7.35406 15.0691 7.10934 14.7669 7.10934H13.6732C13.371 7.10934 13.1263 7.35406 13.1263 7.65621V8.75816C11.511 8.80123 10.2087 10.1629 10.2087 11.8391C10.2087 13.2042 11.0967 14.4238 12.3675 14.8052L15.4444 15.728C15.7971 15.834 16.0439 16.1915 16.0439 16.5983C16.0439 17.0952 15.6816 17.4999 15.2372 17.4999H13.3163C13.0046 17.4999 12.7038 17.4117 12.44 17.2456C12.2185 17.1068 11.9369 17.1151 11.7475 17.2955L10.9443 18.0618C10.703 18.2922 10.7166 18.6914 10.9832 18.8917C11.6053 19.3586 12.3559 19.6279 13.1277 19.6676V20.7811C13.1277 21.0833 13.3724 21.328 13.6745 21.328H14.7683C15.0704 21.328 15.3152 21.0833 15.3152 20.7811V19.6792C16.9305 19.6361 18.2327 18.2751 18.2327 16.5983C18.2327 15.2331 17.3447 14.0136 16.0733 13.6322Z" fill="black" fill-opacity="0.6941"/>
</svg>
