<svg width="75" height="74" viewBox="0 0 75 74" fill="none" xmlns="http://www.w3.org/2000/svg">
<path d="M37.434 0.217896C17.2037 0.217896 0.81279 16.6088 0.81279 36.8391C0.81279 57.0694 17.2037 73.4603 37.434 73.4603C57.6643 73.4603 74.0552 57.0694 74.0552 36.8391C74.0552 16.6088 57.6643 0.217896 37.434 0.217896ZM37.434 14.3939C44.6106 14.3939 50.4286 20.2119 50.4286 27.3885C50.4286 34.5651 44.6106 40.3831 37.434 40.3831C30.2574 40.3831 24.4394 34.5651 24.4394 27.3885C24.4394 20.2119 30.2574 14.3939 37.434 14.3939ZM37.434 65.191C28.766 65.191 20.9988 61.2631 15.8009 55.1202C18.577 49.8928 24.0112 46.2898 30.346 46.2898C30.7004 46.2898 31.0548 46.3488 31.3945 46.4522C33.3141 47.0724 35.3224 47.4711 37.434 47.4711C39.5456 47.4711 41.5687 47.0724 43.4736 46.4522C43.8132 46.3488 44.1676 46.2898 44.522 46.2898C50.8569 46.2898 56.291 49.8928 59.0671 55.1202C53.8693 61.2631 46.102 65.191 37.434 65.191Z" fill="black" fill-opacity="0.6941"/>
</svg>
