<svg width="35" height="27" viewBox="0 0 35 27" fill="none" xmlns="http://www.w3.org/2000/svg">
<path d="M34.5156 14.5161L22.8484 26.1833C21.8066 27.2251 20.001 26.4958 20.001 25.0027V18.3357H10.5561C9.63242 18.3357 8.88933 17.5926 8.88933 16.669V10.002C8.88933 9.07832 9.63242 8.33522 10.5561 8.33522H20.001V1.66823C20.001 0.182042 21.7997 -0.554106 22.8484 0.487612L34.5156 12.1549C35.1615 12.8077 35.1615 13.8633 34.5156 14.5161ZM13.334 25.8361V23.0582C13.334 22.5998 12.959 22.2248 12.5006 22.2248H6.667C5.43777 22.2248 4.44466 21.2317 4.44466 20.0025V6.66847C4.44466 5.43925 5.43777 4.44614 6.667 4.44614H12.5006C12.959 4.44614 13.334 4.07112 13.334 3.61277V0.834852C13.334 0.376496 12.959 0.00147706 12.5006 0.00147706H6.667C2.98626 0.00147706 0 2.98774 0 6.66847V20.0025C0 23.6832 2.98626 26.6695 6.667 26.6695H12.5006C12.959 26.6695 13.334 26.2944 13.334 25.8361Z" fill="black" fill-opacity="0.6941"/>
</svg>
