<svg width="35" height="31" viewBox="0 0 35 31" fill="none" xmlns="http://www.w3.org/2000/svg">
<path d="M13.125 12.421C13.125 11.3658 12.1454 10.5101 10.9375 10.5101H9.84375C7.42725 10.5101 5.46875 12.2209 5.46875 14.3319V17.1983C5.46875 19.3093 7.42725 21.0201 9.84375 21.0201H10.9375C12.1454 21.0201 13.125 20.1644 13.125 19.1092V12.421ZM25.1562 21.0201C27.5728 21.0201 29.5312 19.3093 29.5312 17.1983V14.3319C29.5312 12.2209 27.5728 10.5101 25.1562 10.5101H24.0625C22.8546 10.5101 21.875 11.3658 21.875 12.421V19.1092C21.875 20.1644 22.8546 21.0201 24.0625 21.0201H25.1562ZM17.5 0C7.73691 0 0.313086 7.09608 0 15.2874V16.2428C0 16.7707 0.489453 17.1983 1.09375 17.1983H2.1875C2.7918 17.1983 3.28125 16.7707 3.28125 16.2428V15.2874C3.28125 8.43851 9.65986 2.86638 17.5 2.86638C25.3401 2.86638 31.7188 8.43851 31.7188 15.2874H31.7105C31.716 15.4325 31.7188 25.1835 31.7188 25.1835C31.7188 26.5779 30.4247 27.7084 28.8285 27.7084H21.875C21.875 26.1253 20.406 24.842 18.5938 24.842H16.4062C14.594 24.842 13.125 26.1253 13.125 27.7084C13.125 29.2914 14.594 30.5747 16.4062 30.5747H28.8285C32.2369 30.5747 35 28.161 35 25.1835V15.2874C34.6869 7.09608 27.2631 0 17.5 0Z" fill="black" fill-opacity="0.6941"/>
</svg>
