<svg width="100" height="100" viewBox="0 0 100 100" fill="none" xmlns="http://www.w3.org/2000/svg">
<g clip-path="url(#clip0_63_559)">
<path fill-rule="evenodd" clip-rule="evenodd" d="M16.6668 12.5C14.4567 12.5 12.3371 13.378 10.7743 14.9408C9.21147 16.5036 8.3335 18.6232 8.3335 20.8333V79.1667C8.3335 81.3768 9.21147 83.4964 10.7743 85.0592C12.3371 86.622 14.4567 87.5 16.6668 87.5H83.3335C85.5436 87.5 87.6632 86.622 89.2261 85.0592C90.7888 83.4964 91.6668 81.3768 91.6668 79.1667V20.8333C91.6668 18.6232 90.7888 16.5036 89.2261 14.9408C87.6632 13.378 85.5436 12.5 83.3335 12.5H16.6668ZM35.9377 35.9583C36.0301 35.1617 36.3075 34.3978 36.7476 33.7274C37.1878 33.057 37.7785 32.4988 38.4727 32.0973C39.1668 31.6958 39.9453 31.462 40.7458 31.4148C41.5464 31.3675 42.3469 31.508 43.0835 31.825C45.1835 32.725 49.6168 34.75 55.2335 37.9917C59.1792 40.2503 62.9911 42.735 66.6502 45.4333C67.2932 45.9118 67.8154 46.534 68.1753 47.2502C68.5351 47.9664 68.7224 48.7568 68.7224 49.5583C68.7224 50.3598 68.5351 51.1503 68.1753 51.8665C67.8154 52.5827 67.2932 53.2049 66.6502 53.6833C62.991 56.3791 59.1791 58.861 55.2335 61.1167C51.3058 63.4073 47.2491 65.4691 43.0835 67.2917C42.347 67.6096 41.5462 67.7508 40.7454 67.704C39.9445 67.6571 39.1657 67.4235 38.4713 67.0218C37.7768 66.6201 37.186 66.0615 36.7461 65.3907C36.3061 64.7198 36.0293 63.9553 35.9377 63.1583C35.4338 58.6427 35.189 54.1019 35.2043 49.5583C35.2043 43.0958 35.671 38.2292 35.9377 35.9583Z" fill="white"/>
</g>
<defs>
<clipPath id="clip0_63_559">
<rect width="100" height="100" fill="white"/>
</clipPath>
</defs>
</svg>
